name Walk2.mot
datacolumns 19
datarows 15
range 1.24600000 1.26000000
endheader

                time	   L_ground_force_vx	   L_ground_force_vy	   L_ground_force_vz	   L_ground_force_px	   L_ground_force_py	   L_ground_force_pz	   R_ground_force_vx	   R_ground_force_vy	   R_ground_force_vz	   R_ground_force_px	   R_ground_force_py	   R_ground_force_pz	   L_ground_torque_x	   L_ground_torque_y	   L_ground_torque_z	   R_ground_torque_x	   R_ground_torque_y	   R_ground_torque_z	
          1.24600000	          0.00000000	          0.00000000	          0.00000000	          0.00000000	          0.00000000	          0.00000000	         38.93404158	        511.46661434	         23.15149601	         -0.13708416	          0.00000000	         -0.03951475	          0.00000000	          0.00000000	          0.00000000	          0.00000000	          0.67217138	          0.00000000	
          1.24700000	          0.00000000	          0.00000000	          0.00000000	          0.00000000	          0.00000000	          0.00000000	         39.63026552	        513.90653781	         23.33944940	         -0.13701768	          0.00000000	         -0.03960579	          0.00000000	          0.00000000	          0.00000000	          0.00000000	          0.73335001	          0.00000000	
          1.24800000	          0.00000000	          0.00000000	          0.00000000	          0.00000000	          0.00000000	          0.00000000	         40.31652522	        516.37010723	         23.59049444	         -0.13696023	          0.00000000	         -0.03960857	          0.00000000	          0.00000000	          0.00000000	          0.00000000	          0.77470201	          0.00000000	
          1.24900000	          0.00000000	          0.00000000	          0.00000000	          0.00000000	          0.00000000	          0.00000000	         41.04384368	        518.84461523	         23.91613766	         -0.13691004	          0.00000000	         -0.03950624	          0.00000000	          0.00000000	          0.00000000	          0.00000000	          0.78153735	          0.00000000	
          1.25000000	          0.00000000	          0.00000000	          0.00000000	          0.00000000	          0.00000000	          0.00000000	         41.82264881	        521.30937422	         24.28935114	         -0.13685749	          0.00000000	         -0.03933453	          0.00000000	          0.00000000	          0.00000000	          0.00000000	          0.75888153	          0.00000000	
          1.25100000	          0.00000000	          0.00000000	          0.00000000	          0.00000000	          0.00000000	          0.00000000	         42.63366701	        523.76300730	         24.65904433	         -0.13679873	          0.00000000	         -0.03916956	          0.00000000	          0.00000000	          0.00000000	          0.00000000	          0.72450387	          0.00000000	
          1.25200000	          0.00000000	          0.00000000	          0.00000000	          0.00000000	          0.00000000	          0.00000000	         43.46137007	        526.24988345	         24.98159089	         -0.13673966	          0.00000000	         -0.03906665	          0.00000000	          0.00000000	          0.00000000	          0.00000000	          0.69277749	          0.00000000	
          1.25300000	          0.00000000	          0.00000000	          0.00000000	          0.00000000	          0.00000000	          0.00000000	         44.30282324	        528.82173584	         25.22944392	         -0.13668293	          0.00000000	         -0.03904672	          0.00000000	          0.00000000	          0.00000000	          0.00000000	          0.66912948	          0.00000000	
          1.25400000	          0.00000000	          0.00000000	          0.00000000	          0.00000000	          0.00000000	          0.00000000	         45.14346568	        531.47272453	         25.38781049	         -0.13662411	          0.00000000	         -0.03911479	          0.00000000	          0.00000000	          0.00000000	          0.00000000	          0.66157779	          0.00000000	
          1.25500000	          0.00000000	          0.00000000	          0.00000000	          0.00000000	          0.00000000	          0.00000000	         45.94282489	        534.14389144	         25.47548457	         -0.13656508	          0.00000000	         -0.03924215	          0.00000000	          0.00000000	          0.00000000	          0.00000000	          0.68236559	          0.00000000	
          1.25600000	          0.00000000	          0.00000000	          0.00000000	          0.00000000	          0.00000000	          0.00000000	         46.66618088	        536.77847128	         25.54979532	         -0.13652207	          0.00000000	         -0.03936456	          0.00000000	          0.00000000	          0.00000000	          0.00000000	          0.73000856	          0.00000000	
          1.25700000	          0.00000000	          0.00000000	          0.00000000	          0.00000000	          0.00000000	          0.00000000	         47.32527057	        539.34556243	         25.66500880	         -0.13650480	          0.00000000	         -0.03943081	          0.00000000	          0.00000000	          0.00000000	          0.00000000	          0.78414263	          0.00000000	
          1.25800000	          0.00000000	          0.00000000	          0.00000000	          0.00000000	          0.00000000	          0.00000000	         47.97072381	        541.82091324	         25.83649619	         -0.13649146	          0.00000000	         -0.03943380	          0.00000000	          0.00000000	          0.00000000	          0.00000000	          0.82316502	          0.00000000	
          1.25900000	          0.00000000	          0.00000000	          0.00000000	          0.00000000	          0.00000000	          0.00000000	         48.65341570	        544.17292765	         26.04821243	         -0.13644465	          0.00000000	         -0.03939785	          0.00000000	          0.00000000	          0.00000000	          0.00000000	          0.83731931	          0.00000000	
          1.26000000	          0.00000000	          0.00000000	          0.00000000	          0.00000000	          0.00000000	          0.00000000	         49.39953612	        546.37944224	         26.27858598	         -0.13634295	          0.00000000	         -0.03935234	          0.00000000	          0.00000000	          0.00000000	          0.00000000	          0.82828441	          0.00000000	
